[2026-03-02T04:52:29.051Z] Pipeline process started.
[2026-03-02T04:52:29.062Z] Downloading YouTube: https://youtube.com/shorts/Xqdlp_XDI4k?si=Ksv6Qr3VPFiqrboF
[2026-03-02T04:52:33.925Z] YouTube download completed.
[2026-03-02T04:52:33.934Z] Extracting audio with FFmpeg...
[2026-03-02T04:52:35.274Z] Audio extraction successful.
[2026-03-02T04:52:35.292Z] Starting transcription...
[2026-03-02T04:52:36.857Z] Starting translation...
[2026-03-02T04:52:37.798Z] Generating segment 1/9: "فيسبوك لم يكن أول شيء بنيته...."
[2026-03-02T04:52:40.572Z] Segment 0 saved (20880 bytes).
[2026-03-02T04:52:40.576Z] Generating segment 2/9: "بنيت أيضًا أنظمة دردشة وألعاب ..."
[2026-03-02T04:52:43.536Z] Segment 1 saved (51552 bytes).
[2026-03-02T04:52:43.541Z] Generating segment 3/9: "رفضت جيه كيه رولينغ 12 مرة قبل..."
[2026-03-02T04:52:46.354Z] Segment 2 saved (38880 bytes).
[2026-03-02T04:52:46.357Z] Generating segment 4/9: "لا أعرف كيف أبني سدًا...."
[2026-03-02T04:52:48.949Z] Segment 3 saved (17712 bytes).
[2026-03-02T04:52:48.953Z] Generating segment 5/9: "لا أعرف كيف أحصل على مليون شخص..."
[2026-03-02T04:52:51.798Z] Segment 4 saved (31392 bytes).
[2026-03-02T04:52:51.801Z] Generating segment 6/9: "حسنًا، دعني أخبرك بسر...."
[2026-03-02T04:52:54.434Z] Segment 5 saved (20880 bytes).
[2026-03-02T04:52:54.439Z] Generating segment 7/9: "لا أحد يعرف عندما يبدأ...."
[2026-03-02T04:52:57.040Z] Segment 6 saved (18864 bytes).
[2026-03-02T04:52:57.046Z] Generating segment 8/9: "الأفكار لا تظهر بشكل كامل...."
[2026-03-02T04:52:59.846Z] Segment 7 saved (20016 bytes).
[2026-03-02T04:52:59.851Z] Generating segment 9/9: "تشكل. تصبح واضحة فقط عندما تعم..."
[2026-03-02T04:53:03.019Z] Segment 8 saved (44784 bytes).
[2026-03-02T04:53:03.027Z] Running FFmpeg: C:\Users\fullm\Downloads\dubverse-saas\node_modules\ffmpeg-static\ffmpeg.exe -i C:\Users\fullm\Downloads\dubverse-saas\tmp\uploads\0f969693-5d13-45a3-bd15-fdf7c9e7f53e\audio.mp3 -i C:\Users\fullm\Downloads\dubverse-saas\tmp\uploads\0f969693-5d13-45a3-bd15-fdf7c9e7f53e\segments\seg_0.mp3 -i C:\Users\fullm\Downloads\dubverse-saas\tmp\uploads\0f969693-5d13-45a3-bd15-fdf7c9e7f53e\segments\seg_1.mp3 -i C:\Users\fullm\Downloads\dubverse-saas\tmp\uploads\0f969693-5d13-45a3-bd15-fdf7c9e7f53e\segments\seg_2.mp3 -i C:\Users\fullm\Downloads\dubverse-saas\tmp\uploads\0f969693-5d13-45a3-bd15-fdf7c9e7f53e\segments\seg_3.mp3 -i C:\Users\fullm\Downloads\dubverse-saas\tmp\uploads\0f969693-5d13-45a3-bd15-fdf7c9e7f53e\segments\seg_4.mp3 -i C:\Users\fullm\Downloads\dubverse-saas\tmp\uploads\0f969693-5d13-45a3-bd15-fdf7c9e7f53e\segments\seg_5.mp3 -i C:\Users\fullm\Downloads\dubverse-saas\tmp\uploads\0f969693-5d13-45a3-bd15-fdf7c9e7f53e\segments\seg_6.mp3 -i C:\Users\fullm\Downloads\dubverse-saas\tmp\uploads\0f969693-5d13-45a3-bd15-fdf7c9e7f53e\segments\seg_7.mp3 -i C:\Users\fullm\Downloads\dubverse-saas\tmp\uploads\0f969693-5d13-45a3-bd15-fdf7c9e7f53e\segments\seg_8.mp3 -filter_complex [1:a]aformat=sample_rates=44100:channel_layouts=stereo,adelay=0|0[s0];[2:a]aformat=sample_rates=44100:channel_layouts=stereo,adelay=2000|2000[s1];[3:a]aformat=sample_rates=44100:channel_layouts=stereo,adelay=8000|8000[s2];[4:a]aformat=sample_rates=44100:channel_layouts=stereo,adelay=14000|14000[s3];[5:a]aformat=sample_rates=44100:channel_layouts=stereo,adelay=16000|16000[s4];[6:a]aformat=sample_rates=44100:channel_layouts=stereo,adelay=19000|19000[s5];[7:a]aformat=sample_rates=44100:channel_layouts=stereo,adelay=23000|23000[s6];[8:a]aformat=sample_rates=44100:channel_layouts=stereo,adelay=26000|26000[s7];[9:a]aformat=sample_rates=44100:channel_layouts=stereo,adelay=29000|29000[s8];[0:a]aformat=sample_rates=44100:channel_layouts=stereo,volume=0[bg];[bg][s0][s1][s2][s3][s4][s5][s6][s7][s8]amix=inputs=10:duration=first:dropout_transition=999,volume=20[out] -map [out] -acodec libmp3lame -ar 44100 -b:a 192k -y C:\Users\fullm\Downloads\dubverse-saas\tmp\uploads\0f969693-5d13-45a3-bd15-fdf7c9e7f53e\dubbed_audio.mp3
[2026-03-02T04:53:03.670Z] FFmpeg Err: Input #0, mp3, from 'C:\Users\fullm\Downloads\dubverse-saas\tmp\uploads\0f969693-5d13-45a3-bd15-fdf7c9e7f53e\audio.mp3':
  Metadata:
    major_brand     : mp42
    minor_version   : 0
    compatible_brands: isommp42
    encoder         : Lavf60.16.100
  Duration: 00:00:38.58, start: 0.025057, bitrate: 128 kb/s
  Stream #0:0: Audio: mp3, 44100 Hz, stereo, fltp, 128 kb/s
    Metadata:
      encoder         : Lavc60.31
[mp3 @ 000001b44a6eea00] Estimating duration from bitrate, this may be inaccurate
Input #1, mp3, from 'C:\Users\fullm\Downloads\dubverse-saas\tmp\uploads\0f969693-5d13-45a3-bd15-fdf7c9e7f53e\segments\seg_0.mp3':
  Duration: 00:00:03.48, start: 0.000000, bitrate: 48 kb/s
  Stream #1:0: Audio: mp3, 24000 Hz, mono, fltp, 48 kb/s
[mp3 @ 000001b44a7306c0] Estimating duration from bitrate, this may be inaccurate
Input #2, mp3, from 'C:\Users\fullm\Downloads\dubverse-saas\tmp\uploads\0f969693-5d13-45a3-bd15-fdf7c9e7f53e\segments\seg_1.mp3':
  Duration: 00:00:08.59, start: 0.000000, bitrate: 48 kb/s
  Stream #2:0: Audio: mp3, 24000 Hz, mono, fltp, 48 kb/s

[2026-03-02T04:53:03.690Z] FFmpeg Err: [mp3 @ 000001b44a74b840] Estimating duration from bitrate, this may be inaccurate
Input #3, mp3, from 'C:\Users\fullm\Downloads\dubverse-saas\tmp\uploads\0f969693-5d13-45a3-bd15-fdf7c9e7f53e\segments\seg_2.mp3':
  Duration: 00:00:06.48, start: 0.000000, bitrate: 48 kb/s
  Stream #3:0: Audio: mp3, 24000 Hz, mono, fltp, 48 kb/s
[mp3 @ 000001b44a7386c0] Estimating duration from bitrate, this may be inaccurate
Input #4, mp3, from 'C:\Users\fullm\Downloads\dubverse-saas\tmp\uploads\0f969693-5d13-45a3-bd15-fdf7c9e7f53e\segments\seg_3.mp3':
  Duration: 00:00:02.95, start: 0.000000, bitrate: 48 kb/s
  Stream #4:0: Audio: mp3, 24000 Hz, mono, fltp, 48 kb/s
[mp3 @ 000001b44a752b40] Estimating duration from bitrate, this may be inaccurate
Input #5, mp3, from 'C:\Users\fullm\Downloads\dubverse-saas\tmp\uploads\0f969693-5d13-45a3-bd15-fdf7c9e7f53e\segments\seg_4.mp3':
  Duration: 00:00:05.23, start: 0.000000, bitrate: 48 kb/s
  Stream #5:0: Audio: mp3, 24000 Hz, mono, fltp, 48 kb/s
[mp3 @ 000001b44a7a8c40] Estimating duration from bitrate, this may be inaccurate
Input #6, mp3, from 'C:\Users\fullm\Downloads\dubverse-saas\tmp\uploads\0f969693-5d13-45a3-bd15-fdf7c9e7f53e\segments\seg_5.mp3':
  Duration: 00:00:03.48, start: 0.000000, bitrate: 48 kb/s
  Stream #6:0: Audio: mp3, 24000 Hz, mono, fltp, 48 kb/s
[mp3 @ 000001b44a81bb80] Estimating duration from bitrate, this may be inaccurate
Input #7, mp3, from 'C:\Users\fullm\Downloads\dubverse-saas\tmp\uploads\0f969693-5d13-45a3-bd15-fdf7c9e7f53e\segments\seg_6.mp3':
  Duration: 00:00:03.14, start: 0.000000, bitrate: 48 kb/s
  Stream #7:0: Audio: mp3, 24000 Hz, mono, fltp, 48 kb/s
[mp3 @ 000001b44a7ae8c0] Estimating duration from bitrate, this may be inaccurate
Input #8, mp3, from 'C:\Users\fullm\Downloads\dubverse-saas\tmp\uploads\0f969693-5d13-45a3-bd15-fdf7c9e7f53e\segments\seg_7.mp3':
  Duration: 00:00:03.34, start: 0.000000, bitrate: 48 kb/s
  Stream #8:0: Audio: mp3, 24000 Hz, mono, fltp, 48 kb/s
[mp3 @ 000001b44a836ac0] Estimating duration from bitrate, this may be inaccurate
Input #9, mp3, from 'C:\Users\fullm\Downloads\dubverse-saas\tmp\uploads\0f969693-5d13-45a3-bd15-fdf7c9e7f53e\segments\seg_8.mp3':
  Duration: 00:00:07.46, start: 0.000000, bitrate: 48 kb/s
  Stream #9:0: Audio: mp3, 24000 Hz, mono, fltp, 48 kb/s
Stream mapping:
  Stream #0:0 (mp3float) -> aformat:default
  Stream #1:0 (mp3float) -> aformat:default
  Stream #2:0 (mp3float) -> aformat:default
  Stream #3:0 (mp3float) -> aformat:default
  Stream #4:0 (mp3float) -> aformat:default
  Stream #5:0 (mp3float) -> aformat:default
  Stream #6:0 (mp3float) -> aformat:default
  Stream #7:0 (mp3float) -> aformat:default
  Stream #8:0 (mp3float) -> aformat:default
  Stream #9:0 (mp3float) -> aformat:default
  volume:default -> Stream #0:0 (libmp3lame)

[2026-03-02T04:53:03.830Z] FFmpeg Err: Output #0, mp3, to 'C:\Users\fullm\Downloads\dubverse-saas\tmp\uploads\0f969693-5d13-45a3-bd15-fdf7c9e7f53e\dubbed_audio.mp3':
  Metadata:
    major_brand     : mp42
    minor_version   : 0
    compatible_brands: isommp42
    TSSE            : Lavf60.16.100
  Stream #0:0: Audio: mp3, 44100 Hz, stereo, fltp, 192 kb/s
    Metadata:
      encoder         : Lavc60.31.102 libmp3lame
size=       0kB time=N/A bitrate=N/A speed=N/A    
[2026-03-02T04:53:04.212Z] FFmpeg Err: size=     256kB time=00:00:12.67 bitrate= 165.5kbits/s speed=24.2x    
[2026-03-02T04:53:04.707Z] FFmpeg Err: size=     512kB time=00:00:32.39 bitrate= 129.5kbits/s speed=31.6x    
[2026-03-02T04:53:04.891Z] FFmpeg Err: [out#0/mp3 @ 000001b44a85d840] video:0kB audio:904kB subtitle:0kB other streams:0kB global headers:0kB muxing overhead: 0.082506%
size=     905kB time=00:00:38.53 bitrate= 192.4kbits/s speed=31.9x    

[2026-03-02T04:53:04.910Z] Starting final video/audio muxing...
[2026-03-02T04:53:04.914Z] Running FFmpeg: C:\Users\fullm\Downloads\dubverse-saas\node_modules\ffmpeg-static\ffmpeg.exe -i C:\Users\fullm\Downloads\dubverse-saas\tmp\uploads\0f969693-5d13-45a3-bd15-fdf7c9e7f53e\video.mp4 -i C:\Users\fullm\Downloads\dubverse-saas\tmp\uploads\0f969693-5d13-45a3-bd15-fdf7c9e7f53e\dubbed_audio.mp3 -map 0:v:0 -map 1:a:0 -c:v copy -c:a aac -b:a 192k -shortest -y C:\Users\fullm\Downloads\dubverse-saas\tmp\uploads\0f969693-5d13-45a3-bd15-fdf7c9e7f53e\final_dubbed.mp4
[2026-03-02T04:53:05.053Z] FFmpeg Err: Input #0, mov,mp4,m4a,3gp,3g2,mj2, from 'C:\Users\fullm\Downloads\dubverse-saas\tmp\uploads\0f969693-5d13-45a3-bd15-fdf7c9e7f53e\video.mp4':
  Metadata:
    major_brand     : mp42
    minor_version   : 0
    compatible_brands: isommp42
    encoder         : Google
  Duration: 00:00:38.55, start: 0.000000, bitrate: 593 kb/s
  Stream #0:0[0x1](und): Video: h264 (Constrained Baseline) (avc1 / 0x31637661), yuv420p(tv, bt709, progressive), 360x640 [SAR 1:1 DAR 9:16], 398 kb/s, 30 fps, 30 tbr, 15360 tbn (default)
    Metadata:
      handler_name    : ISO Media file produced by Google Inc.
      vendor_id       : [0][0][0][0]
  Stream #0:1[0x2](und): Audio: aac (LC) (mp4a / 0x6134706D), 48000 Hz, stereo, fltp, 192 kb/s (default)
    Metadata:
      handler_name    : ISO Media file produced by Google Inc.
      vendor_id       : [0][0][0][0]

[2026-03-02T04:53:05.056Z] FFmpeg Err: Input #1, mp3, from 'C:\Users\fullm\Downloads\dubverse-saas\tmp\uploads\0f969693-5d13-45a3-bd15-fdf7c9e7f53e\dubbed_audio.mp3':
  Metadata:
    major_brand     : mp42
    minor_version   : 0
    compatible_brands: isommp42
    encoder         : Lavf60.16.100
  Duration: 00:00:38.58, start: 0.025057, bitrate: 192 kb/s
  Stream #1:0: Audio: mp3, 44100 Hz, stereo, fltp, 192 kb/s
    Metadata:
      encoder         : Lavc60.31
Stream mapping:
  Stream #0:0 -> #0:0 (copy)
  Stream #1:0 -> #0:1 (mp3 (mp3float) -> aac (native))

[2026-03-02T04:53:05.069Z] FFmpeg Err: Output #0, mp4, to 'C:\Users\fullm\Downloads\dubverse-saas\tmp\uploads\0f969693-5d13-45a3-bd15-fdf7c9e7f53e\final_dubbed.mp4':
  Metadata:
    major_brand     : mp42
    minor_version   : 0
    compatible_brands: isommp42
    encoder         : Lavf60.16.100
  Stream #0:0(und): Video: h264 (Constrained Baseline) (avc1 / 0x31637661), yuv420p(tv, bt709, progressive), 360x640 [SAR 1:1 DAR 9:16], q=2-31, 398 kb/s, 30 fps, 30 tbr, 15360 tbn (default)
    Metadata:
      handler_name    : ISO Media file produced by Google Inc.

[2026-03-02T04:53:05.072Z] FFmpeg Err:       vendor_id       : [0][0][0][0]
  Stream #0:1: Audio: aac (LC) (mp4a / 0x6134706D), 44100 Hz, stereo, fltp, 192 kb/s
    Metadata:
      encoder         : Lavc60.31.102 aac
size=       0kB time=N/A bitrate=N/A speed=N/A    
[2026-03-02T04:53:05.559Z] FFmpeg Err: size=     256kB time=00:00:05.93 bitrate= 353.5kbits/s speed=11.8x    
[2026-03-02T04:53:06.058Z] FFmpeg Err: size=     768kB time=00:00:12.96 bitrate= 485.2kbits/s speed=12.9x    
[2026-03-02T04:53:06.558Z] FFmpeg Err: size=    1536kB time=00:00:21.76 bitrate= 578.1kbits/s speed=14.5x    
[2026-03-02T04:53:07.058Z] FFmpeg Err: size=    2048kB time=00:00:30.50 bitrate= 550.1kbits/s speed=15.2x    
[2026-03-02T04:53:07.516Z] FFmpeg Err: [out#0/mp4 @ 000001d2c560bd00] video:1874kB audio:780kB subtitle:0kB other streams:0kB global headers:0kB muxing overhead: 1.255195%
size=    2687kB time=00:00:38.54 bitrate= 571.0kbits/s speed=15.7x    

[2026-03-02T04:53:07.522Z] FFmpeg Err: [aac @ 000001d2c5499940] Qavg: 13307.584

[2026-03-02T04:53:07.537Z] Pipeline finished successfully!
